# Blender 4.1.1
# www.blender.org
mtllib untitled22.mtl
o Not
v 1.000000 1.173312 1.000000
v 1.000000 0.000000 1.000000
v -1.000000 -0.000000 -1.000000
v 1.000000 -0.000000 -1.000000
v -1.000000 1.173312 -1.000000
v 1.000000 1.173312 -1.000000
vn -0.0000 -0.0000 -1.0000
vn 1.0000 -0.0000 -0.0000
vn -0.7071 -0.0000 0.7071
vn -0.0000 1.0000 -0.0000
vn -0.0000 -1.0000 -0.0000
vt 0.833333 0.206672
vt -0.166667 0.206672
vt -0.166667 0.793328
vt 0.833333 0.793328
vt 0.206672 1.166667
vt 0.206672 0.166667
vt 0.793328 0.166667
vt 0.793328 1.166667
vt 0.833333 0.166667
vt -0.166667 0.166667
vt 0.833333 1.166667
s 0
usemtl Material.001
f 4/1/1 3/2/1 5/3/1 6/4/1
f 2/5/2 4/6/2 6/7/2 1/8/2
f 3/2/3 2/1/3 1/4/3 5/3/3
f 6/9/4 5/10/4 1/11/4
f 2/11/5 3/10/5 4/9/5
