# Blender 4.1.1
# www.blender.org
mtllib and.mtl
o and
v -0.991683 0.000000 1.385126
v 0.991683 0.000000 1.385126
v 0.003127 0.000000 -1.385126
v -0.991683 0.000000 0.004368
v -0.304286 0.000000 -1.317119
v -0.581608 0.000000 -1.119756
v -0.801691 0.000000 -0.812356
v -0.942994 0.000000 -0.425009
v 0.005558 0.000000 -1.385126
v 0.991683 0.000000 -0.007763
v 0.310287 0.000000 -1.317713
v 0.585188 0.000000 -1.122073
v 0.803350 0.000000 -0.817356
v 0.943419 0.000000 -0.433391
v -0.991683 0.787308 1.385126
v 0.991683 0.787308 1.385126
v 0.003127 0.787308 -1.385126
v -0.991683 0.787308 0.004368
v -0.304286 0.787308 -1.317119
v -0.581608 0.787308 -1.119756
v -0.801691 0.787308 -0.812356
v -0.942994 0.787308 -0.425009
v 0.005558 0.787308 -1.385126
v 0.991683 0.787308 -0.007763
v 0.310287 0.787308 -1.317713
v 0.585188 0.787308 -1.122073
v 0.803350 0.787308 -0.817356
v 0.943419 0.787308 -0.433391
vn -0.0000 -1.0000 -0.0000
vn -0.0000 1.0000 -0.0000
vn -0.8131 -0.0000 -0.5821
vn 0.2160 -0.0000 -0.9764
vn -0.9394 -0.0000 -0.3427
vn -0.0000 -0.0000 -1.0000
vn -0.9936 -0.0000 -0.1127
vn 1.0000 -0.0000 -0.0000
vn -0.0000 -0.0000 1.0000
vn 0.9936 -0.0000 -0.1127
vn -1.0000 -0.0000 -0.0000
vn 0.9394 -0.0000 -0.3427
vn -0.2160 -0.0000 -0.9764
vn 0.8131 -0.0000 -0.5821
vn -0.5798 -0.0000 -0.8147
vn 0.5798 -0.0000 -0.8147
vt 0.000000 0.000000
vt 0.000000 0.498423
vt 0.024549 0.653419
vt 0.095793 0.793243
vt 0.206757 0.904207
vt 0.346581 0.975451
vt 0.501577 1.000000
vt 0.502802 1.000000
vt 0.656445 0.975665
vt 0.795048 0.905044
vt 0.905044 0.795048
vt 0.975665 0.656445
vt 1.000000 0.502802
vt 1.000000 0.000000
s 0
f 1/1/1 4/2/1 8/3/1 7/4/1 6/5/1 5/6/1 3/7/1 9/8/1 11/9/1 12/10/1 13/11/1 14/12/1 10/13/1 2/14/1
f 15/1/2 16/14/2 24/13/2 28/12/2 27/11/2 26/10/2 25/9/2 23/8/2 17/7/2 19/6/2 20/5/2 21/4/2 22/3/2 18/2/2
f 6/5/3 7/4/3 21/4/3 20/5/3
f 11/9/4 9/8/4 23/8/4 25/9/4
f 7/4/5 8/3/5 22/3/5 21/4/5
f 9/8/6 3/7/6 17/7/6 23/8/6
f 8/3/7 4/2/7 18/2/7 22/3/7
f 2/14/8 10/13/8 24/13/8 16/14/8
f 1/1/9 2/14/9 16/14/9 15/1/9
f 10/13/10 14/12/10 28/12/10 24/13/10
f 4/2/11 1/1/11 15/1/11 18/2/11
f 14/12/12 13/11/12 27/11/12 28/12/12
f 3/7/13 5/6/13 19/6/13 17/7/13
f 13/11/14 12/10/14 26/10/14 27/11/14
f 5/6/15 6/5/15 20/5/15 19/6/15
f 12/10/16 11/9/16 25/9/16 26/10/16
